<svg width="300" height="208" viewBox="0 0 300 208" fill="none" xmlns="http://www.w3.org/2000/svg">
<path fill-rule="evenodd" clip-rule="evenodd" d="M221.568 116.266C220.7 116.27 219.87 116.619 219.26 117.236C218.65 117.852 218.309 118.686 218.313 119.553V131.868C218.31 132.298 218.391 132.724 218.553 133.122C218.715 133.52 218.953 133.882 219.255 134.188C219.557 134.494 219.916 134.737 220.312 134.903C220.709 135.07 221.134 135.157 221.563 135.159C222.133 135.158 222.692 135.004 223.182 134.714L228.458 131.638L233.734 128.549C234.227 128.258 234.637 127.843 234.921 127.345C235.205 126.848 235.355 126.285 235.355 125.711C235.355 125.138 235.205 124.575 234.921 124.077C234.637 123.579 234.227 123.165 233.734 122.873L228.458 119.785L223.182 116.709C222.693 116.42 222.136 116.267 221.568 116.266ZM62.94 141.961C77.6841 141.961 85.0562 149.505 85.0562 164.592V198.543C85.0562 203.463 82.598 205.923 77.6817 205.924C72.7653 205.924 70.3072 203.431 70.3072 198.445V164.297C70.3072 159.246 67.8007 156.721 62.7876 156.721H50.5551L50.6538 198.543C50.6538 203.463 48.1956 205.923 43.2793 205.924C38.3629 205.924 35.9048 203.431 35.9048 198.445V164.297C35.9048 159.246 33.4147 156.721 28.4346 156.721H16.2453V198.347C16.2453 203.333 13.7552 205.826 8.7751 205.825C3.9258 205.825 1.50136 203.332 1.50177 198.347V149.291C1.50177 144.437 4.00808 141.961 9.02072 141.862L62.94 141.961ZM117.051 141.863H126.832C141.641 141.863 149.046 149.259 149.046 164.052V183.19C149.046 198.277 141.674 205.821 126.931 205.821H116.854C102.208 205.821 94.8856 198.441 94.8856 183.681V164.101C94.8856 149.276 102.274 141.863 117.051 141.863ZM116.903 156.722C112.054 156.722 109.629 159.165 109.629 164.052V183.486C109.629 188.538 112.054 191.063 116.903 191.063H126.832C131.813 191.063 134.303 188.538 134.303 183.486V163.856C134.303 159.102 131.813 156.724 126.832 156.722H116.903ZM208.217 149.292L188.313 200.952C187.134 203.938 185.586 205.52 183.668 205.7C181.884 205.884 180.083 205.834 178.311 205.553C176.657 205.274 175.142 203.74 173.765 200.952L154.058 149.194C154.058 144.274 156.515 141.814 161.429 141.814C164.542 141.814 166.549 142.675 167.45 144.397C168.351 146.12 172.93 159.264 181.186 183.829C189.377 159.263 193.98 146.143 194.997 144.47C196.013 142.797 198.012 141.911 200.993 141.812C205.809 141.812 208.217 144.307 208.217 149.292ZM228.369 205.822C223.389 205.822 220.899 203.329 220.899 198.344V156.718C215.918 156.718 213.46 154.339 213.524 149.583C213.524 144.598 215.983 142.056 220.899 141.958L228.273 141.859C233.19 141.958 235.648 144.434 235.648 149.288V198.341C235.648 203.327 233.223 205.82 228.374 205.819L228.369 205.822ZM292.26 205.921C287.247 205.921 284.74 203.428 284.74 198.442V186.192L260.315 186.142L260.265 198.443C260.265 203.429 257.807 205.922 252.891 205.921C247.975 205.921 245.517 203.462 245.519 198.543V164.596C245.519 149.509 252.891 141.965 267.635 141.964L292.11 142.013C297.026 142.013 299.484 144.44 299.484 149.295V198.446C299.484 203.432 297.076 205.925 292.26 205.924V205.921ZM284.74 171.332V156.721H267.785C262.772 156.721 260.266 159.246 260.265 164.297V171.332H284.74Z" fill="#EF233C"/>
<path fill-rule="evenodd" clip-rule="evenodd" d="M297.669 43.1531C297.628 43.1946 297.669 1.51214 297.669 1.50909C297.337 1.70961 246.484 30.0137 240.803 33.4035C235.121 36.7934 228.222 40.9201 220.105 45.7952V31.9817C219.931 25.9488 217.463 20.2094 213.204 15.9333C198.294 1.71997 182.529 15.2525 127.979 45.797V31.9817C127.979 35.4123 128.58 8.30096 100.065 12.1784C91.8297 13.2986 71.214 25.3513 71.1628 25.2782C58.5372 32.8617 2.07217 66.868 1.96735 66.9222V112.023C27.1297 96.5836 46.2034 84.5967 60.4076 76.0642C77.5433 65.7716 109.896 46.4052 117.027 46.4052C120.007 46.4052 122.307 47.2179 123.926 48.8431C119.867 51.5473 109.581 57.172 105.25 59.6099C100.919 62.0477 97.0004 64.4856 93.4808 66.9235V112.024C118.643 96.584 138.326 84.6664 152.53 76.2708C166.735 67.8752 177.422 61.6455 184.592 57.5816C191.763 53.5195 204.694 46.2456 209.153 46.4089C211.856 46.5753 213.414 47.8308 215.038 49.4562C210.71 52.1604 200.966 57.2391 196.768 59.8171C192.57 62.3951 188.723 64.7537 185.202 66.9271V112.027L297.669 43.1531ZM288.507 16.2587L288.812 10.8345L292.964 8.38446L292.66 13.8087L288.507 16.2587ZM292.153 41.6417L288.045 44.1667L288.253 38.7479L292.36 36.2229L292.153 41.6417ZM279.752 16.1789L283.905 13.7288L283.6 19.1531L279.447 21.6031L279.752 16.1789ZM283.19 47.1524L279.083 49.6775L279.29 44.2581L283.398 41.7337L283.19 47.1524ZM271.069 21.3039L275.222 18.8538L274.917 24.278L270.764 26.7281L271.069 21.3039ZM274.604 52.4316L270.496 54.9566L270.702 49.5379L274.811 47.0129L274.604 52.4316ZM262.01 26.6513L266.163 24.2013L265.858 29.6255L261.705 32.0755L262.01 26.6513ZM265.641 57.943L261.533 60.468L261.74 55.0493L265.848 52.5243L265.641 57.943ZM253.327 31.7745L257.479 29.3244L257.175 34.7486L253.022 37.1987L253.327 31.7745ZM257.052 63.2228L252.944 65.7478L253.151 60.3291L257.259 57.804L257.052 63.2228ZM244.266 37.1207L248.419 34.6706L248.114 40.0948L243.962 42.5449L244.266 37.1207ZM248.088 68.7275L243.98 71.2525L244.187 65.8337L248.295 63.3087L248.088 68.7275ZM235.598 71.1129L239.706 68.5879L239.498 74.0072L235.391 76.5316L235.598 71.1129ZM235.581 42.2389L239.734 39.7889L239.43 45.2131L235.277 47.6632L235.581 42.2389ZM226.635 76.6218L230.743 74.0968L230.536 79.5162L226.428 82.0406L226.635 76.6218ZM226.521 47.5845L230.673 45.1345L230.369 50.5587L226.216 53.0088L226.521 47.5845ZM217.299 82.3605L221.407 79.8356L221.2 85.2543L217.094 87.7787L217.299 82.3605ZM217.082 53.1532L221.235 50.7032L220.931 56.1274L216.778 58.5775L217.082 53.1532ZM208.337 87.8695L212.445 85.3445L212.238 90.7632L208.13 93.2882L208.337 87.8695ZM208.022 58.4982L212.175 56.0482L211.87 61.4724L207.717 63.9224L208.022 58.4982ZM199.748 93.1487L203.856 90.6237L203.649 96.0424L199.541 98.5674L199.748 93.1487ZM199.339 63.6214L203.492 61.1713L203.187 66.5956L199.034 69.0456L199.339 63.6214ZM190.785 98.6576L194.893 96.1326L194.686 101.551L190.578 104.076L190.785 98.6576ZM190.278 68.9664L194.43 66.5163L194.126 71.9406L189.973 74.3906L190.278 68.9664Z" fill="#EF233C"/>
</svg>
