<svg width="299" height="90" viewBox="0 0 299 90" fill="none" xmlns="http://www.w3.org/2000/svg">
<path fill-rule="evenodd" clip-rule="evenodd" d="M220.568 0.265564C219.7 0.270401 218.87 0.619349 218.26 1.23576C217.65 1.85218 217.309 2.68564 217.313 3.55302V15.8678C217.31 16.2975 217.391 16.7236 217.553 17.1217C217.715 17.5199 217.953 17.8822 218.255 18.1879C218.557 18.4936 218.916 18.7368 219.312 18.9034C219.709 19.07 220.134 19.1569 220.563 19.1589C221.133 19.1576 221.692 19.004 222.182 18.714L227.458 15.6381L232.734 12.5493C233.227 12.2581 233.637 11.8432 233.921 11.3455C234.205 10.8478 234.355 10.2845 234.355 9.71134C234.355 9.13816 234.205 8.57489 233.921 8.07718C233.637 7.57948 233.227 7.16455 232.734 6.87338L227.458 3.7846L222.182 0.708638C221.693 0.419538 221.136 0.26656 220.568 0.265564ZM61.94 25.9606C76.6841 25.9606 84.0562 33.5045 84.0562 48.5924V82.5432C84.0562 87.4632 81.598 89.9234 76.6817 89.9238C71.7653 89.9242 69.3072 87.4313 69.3072 82.4451V48.2974C69.3072 43.2462 66.8007 40.7206 61.7876 40.7206H49.5551L49.6538 82.5432C49.6538 87.4632 47.1956 89.9234 42.2793 89.9238C37.363 89.9242 34.9048 87.4313 34.9048 82.4451V48.2974C34.9048 43.2462 32.4147 40.7206 27.4346 40.7206H15.2453V82.3469C15.2453 87.3332 12.7552 89.8259 7.7751 89.8251C2.9258 89.8251 0.501364 87.3323 0.50177 82.3469V33.2912C0.50177 28.4374 3.00808 25.961 8.02072 25.8618L61.94 25.9606ZM116.051 25.863H125.832C140.641 25.863 148.046 33.2595 148.046 48.0524V67.1896C148.046 82.2775 140.674 89.8214 125.931 89.8214H115.854C101.208 89.8214 93.8856 82.4414 93.8856 67.6814V48.1006C93.8856 33.2756 101.274 25.863 116.051 25.863ZM115.903 40.7218C111.054 40.7218 108.629 43.1653 108.629 48.0524V67.4864C108.629 72.5376 111.054 75.0632 115.903 75.0632H125.832C130.813 75.0632 133.303 72.5376 133.303 67.4864V47.8555C133.303 43.1017 130.813 40.7238 125.832 40.7218H115.903ZM207.217 33.2924L187.313 84.9524C186.134 87.9376 184.586 89.5201 182.668 89.7001C180.884 89.884 179.083 89.8345 177.311 89.5526C175.657 89.2739 174.142 87.7405 172.765 84.9524L153.058 33.1937C153.058 28.2741 155.515 25.8141 160.429 25.8137C163.542 25.8137 165.549 26.6748 166.45 28.3972C167.351 30.1195 171.93 43.2636 180.186 67.8295C188.377 43.2628 192.98 30.1429 193.997 28.4697C195.013 26.7965 197.012 25.9108 199.993 25.8125C204.809 25.8125 207.217 28.3066 207.217 33.2924ZM227.369 89.822C222.389 89.822 219.899 87.3293 219.899 82.3439V40.7175C214.918 40.7175 212.46 38.3394 212.524 33.5831C212.524 28.5977 214.983 26.0558 219.899 25.9575L227.273 25.8588C232.19 25.9575 234.648 28.434 234.648 33.2882V82.3409C234.648 87.3271 232.223 89.8198 227.374 89.819L227.369 89.822ZM291.26 89.9207C286.247 89.9207 283.74 87.4278 283.74 82.442V70.1918L259.315 70.1424L259.265 82.4426C259.265 87.4289 256.807 89.9218 251.891 89.9214C246.975 89.921 244.517 87.4616 244.519 82.5432V48.596C244.519 33.509 251.891 25.965 266.635 25.9642L291.11 26.013C296.026 26.013 298.484 28.4403 298.484 33.2949V82.4457C298.484 87.4319 296.076 89.9248 291.26 89.9244V89.9207ZM283.74 55.3325V40.7206H266.785C261.772 40.7206 259.266 43.2462 259.265 48.2974V55.3325H283.74Z" fill="#EF233C"/>
</svg>
